<svg xmlns="http://www.w3.org/2000/svg" xmlns:xlink="http://www.w3.org/1999/xlink" width="48" zoomAndPan="magnify" viewBox="0 0 36 36.000001" height="48" preserveAspectRatio="xMidYMid meet" version="1.0"><defs><clipPath id="1d8133153d"><path d="M 1.761719 1.277344 L 34.601562 1.277344 L 34.601562 34.113281 L 1.761719 34.113281 Z M 1.761719 1.277344 " clip-rule="nonzero"/></clipPath></defs><g clip-path="url(#1d8133153d)"><path fill="#545454" d="M 18.183594 1.277344 C 17.644531 1.277344 17.109375 1.304688 16.574219 1.355469 C 16.039062 1.410156 15.507812 1.488281 14.980469 1.59375 C 14.453125 1.699219 13.929688 1.828125 13.417969 1.984375 C 12.902344 2.140625 12.394531 2.320312 11.898438 2.527344 C 11.402344 2.734375 10.917969 2.960938 10.441406 3.214844 C 9.96875 3.46875 9.507812 3.746094 9.0625 4.042969 C 8.613281 4.34375 8.183594 4.664062 7.765625 5.003906 C 7.351562 5.34375 6.953125 5.707031 6.574219 6.085938 C 6.191406 6.464844 5.832031 6.863281 5.492188 7.28125 C 5.148438 7.695312 4.828125 8.128906 4.53125 8.574219 C 4.230469 9.019531 3.957031 9.480469 3.703125 9.957031 C 3.449219 10.429688 3.21875 10.914062 3.011719 11.414062 C 2.808594 11.910156 2.625 12.414062 2.46875 12.929688 C 2.3125 13.445312 2.183594 13.964844 2.078125 14.492188 C 1.972656 15.019531 1.894531 15.550781 1.84375 16.085938 C 1.789062 16.621094 1.761719 17.160156 1.761719 17.695312 C 1.761719 18.234375 1.789062 18.769531 1.84375 19.304688 C 1.894531 19.839844 1.972656 20.371094 2.078125 20.898438 C 2.183594 21.425781 2.3125 21.949219 2.46875 22.460938 C 2.625 22.976562 2.808594 23.480469 3.011719 23.980469 C 3.21875 24.476562 3.449219 24.960938 3.703125 25.4375 C 3.957031 25.910156 4.230469 26.371094 4.53125 26.816406 C 4.828125 27.265625 5.148438 27.695312 5.492188 28.113281 C 5.832031 28.527344 6.191406 28.925781 6.574219 29.304688 C 6.953125 29.6875 7.351562 30.046875 7.765625 30.386719 C 8.183594 30.730469 8.613281 31.050781 9.0625 31.347656 C 9.507812 31.648438 9.96875 31.921875 10.441406 32.175781 C 10.917969 32.429688 11.402344 32.660156 11.898438 32.863281 C 12.394531 33.070312 12.902344 33.25 13.417969 33.40625 C 13.929688 33.5625 14.453125 33.695312 14.980469 33.800781 C 15.507812 33.902344 16.039062 33.984375 16.574219 34.035156 C 17.109375 34.089844 17.644531 34.113281 18.183594 34.113281 C 18.71875 34.113281 19.257812 34.089844 19.792969 34.035156 C 20.328125 33.984375 20.859375 33.902344 21.386719 33.800781 C 21.914062 33.695312 22.433594 33.5625 22.949219 33.40625 C 23.464844 33.25 23.96875 33.070312 24.464844 32.863281 C 24.960938 32.660156 25.449219 32.429688 25.921875 32.175781 C 26.398438 31.921875 26.855469 31.648438 27.304688 31.347656 C 27.75 31.050781 28.183594 30.730469 28.597656 30.386719 C 29.015625 30.046875 29.414062 29.6875 29.792969 29.304688 C 30.171875 28.925781 30.535156 28.527344 30.875 28.113281 C 31.214844 27.695312 31.535156 27.265625 31.835938 26.816406 C 32.132812 26.371094 32.410156 25.910156 32.664062 25.4375 C 32.917969 24.960938 33.144531 24.476562 33.351562 23.980469 C 33.558594 23.480469 33.738281 22.976562 33.894531 22.460938 C 34.050781 21.949219 34.179688 21.425781 34.285156 20.898438 C 34.390625 20.371094 34.46875 19.839844 34.523438 19.304688 C 34.574219 18.769531 34.601562 18.234375 34.601562 17.695312 C 34.601562 17.160156 34.574219 16.621094 34.523438 16.085938 C 34.46875 15.550781 34.390625 15.019531 34.285156 14.492188 C 34.179688 13.964844 34.050781 13.445312 33.894531 12.929688 C 33.738281 12.414062 33.558594 11.910156 33.351562 11.414062 C 33.144531 10.914062 32.917969 10.429688 32.664062 9.957031 C 32.410156 9.480469 32.132812 9.019531 31.835938 8.574219 C 31.535156 8.128906 31.214844 7.695312 30.875 7.28125 C 30.535156 6.863281 30.171875 6.464844 29.792969 6.085938 C 29.414062 5.707031 29.015625 5.34375 28.597656 5.003906 C 28.183594 4.664062 27.75 4.34375 27.304688 4.042969 C 26.855469 3.746094 26.398438 3.46875 25.921875 3.214844 C 25.449219 2.960938 24.960938 2.734375 24.464844 2.527344 C 23.96875 2.320312 23.464844 2.140625 22.949219 1.984375 C 22.433594 1.828125 21.914062 1.699219 21.386719 1.59375 C 20.859375 1.488281 20.328125 1.410156 19.792969 1.355469 C 19.257812 1.304688 18.71875 1.277344 18.183594 1.277344 Z M 27.652344 11.480469 L 22.492188 20.160156 L 16.949219 29.480469 L 15.996094 19.628906 L 16.804688 19.007812 L 26.773438 11.785156 L 16.375 18.390625 L 15.445312 18.988281 L 6.6875 14.71875 L 17.363281 12.769531 L 27.300781 10.972656 C 27.449219 10.929688 27.570312 10.972656 27.65625 11.101562 C 27.746094 11.226562 27.742188 11.355469 27.652344 11.480469 Z M 27.652344 11.480469 " fill-opacity="1" fill-rule="nonzero"/></g></svg>