<svg xmlns="http://www.w3.org/2000/svg" xmlns:xlink="http://www.w3.org/1999/xlink" width="48" zoomAndPan="magnify" viewBox="0 0 36 36.000001" height="48" preserveAspectRatio="xMidYMid meet" version="1.0"><defs><clipPath id="8ac8b98129"><path d="M 1.550781 22.257812 L 34.359375 22.257812 L 34.359375 35.027344 L 1.550781 35.027344 Z M 1.550781 22.257812 " clip-rule="nonzero"/></clipPath><clipPath id="ec342a1fee"><path d="M 12.660156 24.390625 L 23.214844 24.390625 L 23.214844 35.027344 L 12.660156 35.027344 Z M 12.660156 24.390625 " clip-rule="nonzero"/></clipPath><clipPath id="9a58e872be"><path d="M 15.066406 24.484375 L 20.621094 24.484375 L 20.621094 35.027344 L 15.066406 35.027344 Z M 15.066406 24.484375 " clip-rule="nonzero"/></clipPath><clipPath id="0f117d1297"><path d="M 9.050781 22.257812 L 18 22.257812 L 18 35.027344 L 9.050781 35.027344 Z M 9.050781 22.257812 " clip-rule="nonzero"/></clipPath><clipPath id="caf82e4784"><path d="M 17.9375 22.257812 L 26.917969 22.257812 L 26.917969 35.027344 L 17.9375 35.027344 Z M 17.9375 22.257812 " clip-rule="nonzero"/></clipPath><clipPath id="75a79c0969"><path d="M 7.382812 30.886719 L 8.679688 30.886719 L 8.679688 35.027344 L 7.382812 35.027344 Z M 7.382812 30.886719 " clip-rule="nonzero"/></clipPath><clipPath id="716fe16389"><path d="M 27.289062 30.886719 L 28.585938 30.886719 L 28.585938 35.027344 L 27.289062 35.027344 Z M 27.289062 30.886719 " clip-rule="nonzero"/></clipPath></defs><g clip-path="url(#8ac8b98129)"><path fill="#6b809b" d="M 16.21875 28.203125 L 12.691406 22.308594 C 8.144531 23.855469 2.210938 24.277344 1.785156 30.410156 C 1.730469 31.1875 1.605469 33.132812 1.550781 35.03125 L 34.359375 35.03125 C 34.304688 33.132812 34.179688 31.1875 34.125 30.410156 C 33.699219 24.277344 27.765625 23.855469 23.21875 22.308594 L 19.691406 28.203125 L 16.21875 28.203125 " fill-opacity="1" fill-rule="evenodd"/></g><path fill="#000000" d="M 24.542969 6.691406 L 24.421875 9.351562 C 25.46875 11.34375 24.398438 12.433594 23.847656 12.828125 C 23.585938 15.117188 22.277344 16.644531 20.625 17.40625 C 19.8125 17.78125 18.925781 17.964844 18.042969 17.964844 C 17.15625 17.964844 16.269531 17.78125 15.460938 17.40625 C 13.808594 16.644531 12.5 15.117188 12.238281 12.828125 C 11.6875 12.433594 10.617188 11.34375 11.664062 9.351562 L 11.539062 6.691406 L 11.5625 6.511719 C 12.046875 4.855469 13.164062 3.664062 14.554688 2.933594 C 15.679688 2.34375 16.984375 2.058594 18.269531 2.078125 C 19.5625 2.097656 20.84375 2.421875 21.914062 3.054688 C 23.175781 3.796875 24.148438 4.960938 24.527344 6.539062 L 24.542969 6.691406 " fill-opacity="1" fill-rule="nonzero"/><g clip-path="url(#ec342a1fee)"><path fill="#ffffff" d="M 17.921875 24.472656 C 20.820312 24.472656 23.171875 26.425781 23.171875 28.128906 C 23.171875 29.835938 22.066406 34.410156 20.433594 35.03125 L 15.40625 35.03125 C 13.773438 34.410156 12.667969 29.835938 12.667969 28.128906 C 12.667969 26.425781 15.019531 24.472656 17.921875 24.472656 " fill-opacity="1" fill-rule="evenodd"/></g><g clip-path="url(#9a58e872be)"><path fill="#00bcd4" d="M 17.988281 24.511719 L 16.007812 26.601562 L 16.597656 27.359375 L 15.078125 35.03125 L 19.238281 35.03125 L 20.5625 34.972656 L 19.566406 27.363281 L 19.972656 26.601562 L 17.988281 24.511719 " fill-opacity="1" fill-rule="evenodd"/></g><path fill="#d3aa96" d="M 22.386719 15.832031 L 22.605469 20.332031 L 17.847656 25.113281 L 13.375 20.214844 L 13.578125 15.816406 L 22.386719 15.832031 " fill-opacity="1" fill-rule="evenodd"/><path fill="#02abc1" d="M 17.671875 24.511719 L 16.007812 26.601562 L 16.597656 27.359375 L 16.597656 27.363281 L 19.566406 27.363281 L 19.972656 26.601562 L 18.347656 24.511719 L 17.671875 24.511719 " fill-opacity="1" fill-rule="evenodd"/><path fill="#e8e8e8" d="M 11.382812 22.308594 L 13.386719 19.945312 L 17.988281 24.511719 L 14.46875 28.457031 L 11.382812 22.308594 " fill-opacity="1" fill-rule="evenodd"/><path fill="#e8e8e8" d="M 24.597656 22.308594 L 22.59375 19.945312 L 17.988281 24.511719 L 21.511719 28.457031 L 24.597656 22.308594 " fill-opacity="1" fill-rule="evenodd"/><path fill="#d3aa96" d="M 24.550781 10.113281 C 24.550781 10.113281 26.804688 13.421875 23.867188 14.792969 L 24.550781 10.113281 " fill-opacity="1" fill-rule="evenodd"/><path fill="#d3aa96" d="M 11.433594 10.113281 C 11.433594 10.113281 9.175781 13.421875 12.113281 14.792969 L 11.433594 10.113281 " fill-opacity="1" fill-rule="evenodd"/><path fill="#ffceb4" d="M 18.570312 3.808594 C 22.175781 3.808594 24.628906 6.644531 24.628906 11.480469 C 24.628906 14.632812 22.320312 21.09375 18.613281 21.09375 C 18.195312 21.09375 17.785156 21.09375 17.371094 21.09375 C 13.660156 21.09375 11.351562 14.632812 11.351562 11.480469 C 11.351562 6.644531 13.804688 3.808594 17.410156 3.808594 C 17.796875 3.808594 18.183594 3.808594 18.570312 3.808594 " fill-opacity="1" fill-rule="evenodd"/><path fill="#000000" d="M 11.351562 11.480469 C 11.351562 11.480469 10.492188 5.578125 11.484375 5.054688 C 11.296875 3.988281 12.347656 3.035156 13.09375 2.746094 C 13.09375 2.746094 14.394531 1.207031 17.472656 0.894531 C 17.472656 0.894531 22.121094 0.00390625 24.847656 4.289062 C 25.289062 4.980469 25.214844 4.824219 24.714844 5.464844 C 25.066406 7.316406 25.03125 9.785156 24.625 11.601562 C 24.625 11.601562 23.910156 7.007812 23.101562 6.40625 C 23.101562 6.40625 18.355469 8.964844 13.117188 5.960938 C 13.117188 5.960938 12.40625 6.488281 12.082031 7.78125 C 12.011719 8.070312 11.964844 8.355469 11.914062 8.695312 C 11.773438 9.671875 11.578125 10.5 11.351562 11.480469 " fill-opacity="1" fill-rule="evenodd"/><g clip-path="url(#0f117d1297)"><path fill="#4f6074" d="M 13.363281 35.03125 L 9.917969 28.46875 L 10.988281 26.617188 L 9.058594 26.011719 L 9.421875 23.160156 L 11.539062 22.308594 L 11.636719 22.5 L 17.953125 35.03125 L 13.363281 35.03125 " fill-opacity="1" fill-rule="evenodd"/></g><g clip-path="url(#caf82e4784)"><path fill="#4f6074" d="M 22.546875 35.03125 L 25.992188 28.46875 L 24.921875 26.617188 L 26.851562 26.011719 L 26.488281 23.160156 L 24.371094 22.308594 L 24.273438 22.5 L 17.953125 35.03125 L 22.546875 35.03125 " fill-opacity="1" fill-rule="evenodd"/></g><g clip-path="url(#75a79c0969)"><path fill="#4f6074" d="M 7.878906 30.929688 L 8.617188 35.03125 L 7.410156 35.03125 Z M 7.878906 30.929688 " fill-opacity="1" fill-rule="evenodd"/></g><g clip-path="url(#716fe16389)"><path fill="#4f6074" d="M 28.03125 30.929688 L 27.292969 35.03125 L 28.5 35.03125 Z M 28.03125 30.929688 " fill-opacity="1" fill-rule="evenodd"/></g></svg>